<?xml version="1.0" encoding="utf-8"?>
<!-- Generator: Adobe Illustrator 15.0.2, SVG Export Plug-In . SVG Version: 6.00 Build 0)  -->
<!DOCTYPE svg PUBLIC "-//W3C//DTD SVG 1.1//EN" "http://www.w3.org/Graphics/SVG/1.1/DTD/svg11.dtd">
<svg version="1.1" id="Layer_1" xmlns="http://www.w3.org/2000/svg" xmlns:xlink="http://www.w3.org/1999/xlink" x="0px" y="0px"
	 width="512.001px" height="489.755px" viewBox="0 0 512.001 489.755" enable-background="new 0 0 512.001 489.755"
	 xml:space="preserve">
<path d="M405.659,63.817c58.72,0,106.342,47.615,106.342,106.349s-47.622,106.342-106.788,106.342h-35.814
	c-11.768,14.981-23.404,24.191-27.55,21.278c-3.097-2.164-1.312-10.495,3.936-21.278h-104
	c-11.774,14.981-23.411,24.191-27.563,21.278c-3.089-2.164-1.299-10.495,3.942-21.278h-104
	c-11.781,14.981-23.411,24.191-27.563,21.278c-3.089-2.164-1.299-10.495,3.942-21.278H54.694c-29.373,0-53.177-23.798-53.177-53.165
	c0-26.041,18.714-47.707,43.43-52.285l-0.892-11.531c0-39.974,31.512-72.587,71.045-74.365C132.602,35.552,179.896,0,235.486,0
	c52.784,0,98.084,32.049,117.513,77.743C368.52,68.881,386.492,63.817,405.659,63.817z M59.745,357.307
	c13.474-19.245,28.298-32.114,33.112-28.743c4.809,3.358-2.21,21.699-15.69,40.944c-13.473,19.245-28.297,32.115-33.111,28.743
	C39.247,394.893,46.272,376.553,59.745,357.307z M17.208,448.273c13.473-19.245,28.297-32.115,33.112-28.743
	c4.809,3.358-2.217,21.698-15.69,40.944C21.156,479.72,6.325,492.59,1.517,489.218C-3.297,485.847,3.728,467.52,17.208,448.273z
	 M144.828,314.763c13.474-19.232,28.298-32.115,33.112-28.744c4.809,3.372-2.217,21.712-15.69,40.944
	c-13.473,19.259-28.304,32.115-33.112,28.757C124.323,352.349,131.349,334.021,144.828,314.763z M102.283,405.729
	c13.48-19.246,28.305-32.115,33.112-28.744c4.815,3.372-2.21,21.699-15.684,40.944c-13.479,19.245-28.304,32.115-33.112,28.757
	C81.785,443.302,88.811,424.975,102.283,405.729z M187.366,357.307c13.474-19.245,28.298-32.114,33.112-28.743
	c4.809,3.358-2.21,21.699-15.69,40.944c-13.473,19.245-28.297,32.115-33.112,28.743
	C166.868,394.893,173.894,376.553,187.366,357.307z M144.828,448.273c13.474-19.245,28.298-32.115,33.112-28.743
	c4.809,3.358-2.217,21.698-15.69,40.944c-13.473,19.245-28.304,32.115-33.112,28.743
	C124.323,485.847,131.349,467.52,144.828,448.273z M272.449,314.763c13.474-19.232,28.298-32.115,33.112-28.744
	c4.802,3.372-2.217,21.699-15.69,40.944c-13.473,19.259-28.304,32.115-33.112,28.757
	C251.944,352.349,258.97,334.021,272.449,314.763z M229.904,405.729c13.479-19.246,28.305-32.115,33.112-28.744
	c4.814,3.372-2.21,21.699-15.684,40.944c-13.479,19.245-28.304,32.115-33.112,28.757
	C209.406,443.302,216.432,424.975,229.904,405.729z M314.98,357.307c13.486-19.245,28.311-32.114,33.112-28.743
	c4.828,3.358-2.204,21.699-15.69,40.944c-13.46,19.245-28.284,32.115-33.111,28.743C294.489,394.893,301.508,376.553,314.98,357.307
	z M272.449,448.273c13.474-19.245,28.298-32.115,33.112-28.743c4.802,3.358-2.217,21.698-15.69,40.944
	c-13.473,19.245-28.304,32.115-33.112,28.743C251.944,485.847,258.97,467.52,272.449,448.273z M400.07,314.763
	c13.473-19.232,28.298-32.115,33.112-28.744c4.802,3.372-2.218,21.699-15.69,40.944c-13.474,19.259-28.311,32.115-33.112,28.757
	C379.565,352.349,386.584,334.021,400.07,314.763z M357.525,405.729c13.474-19.246,28.298-32.115,33.112-28.744
	c4.814,3.372-2.217,21.699-15.677,40.944c-13.486,19.245-28.311,32.115-33.112,28.757
	C337.021,443.302,344.053,424.975,357.525,405.729z"/>
</svg>
